<svg version="1.2" xmlns="http://www.w3.org/2000/svg" viewBox="0 0 161 160" width="161" height="160"><style></style><path  d="m63.2 159.3c-16.5 0-32.3-6.6-44-18.3-11.6-11.6-18.2-27.5-18.2-44v-58.1c0-2.6 0-8.1 13.2-8.1 13.1 0 13.2 5.2 13.2 8.1v58.1c0 9.5 3.8 18.7 10.5 25.4 6.7 6.7 15.8 10.5 25.3 10.5h58.2c2.6 0 8.1 0 8.1 13.2 0 13.1-5.5 13.2-8.1 13.2z"/><path  d="m97.8 0c16.5-0.1 32.3 6.4 44.1 18 11.7 11.7 18.3 27.5 18.4 44l0.3 58.1c0 2.6 0 8.1-13.1 8.1-13.2 0-13.2-5.2-13.2-8.1l-0.4-58.1c0-9.5-3.8-18.6-10.6-25.3-6.7-6.6-15.8-10.4-25.3-10.4l-58.2 0.3c-2.6 0-8.1 0-8.1-13.1 0-13.2 5.4-13.3 8.1-13.3z"/><path  d="m103.3 53.2h-45.2c-2.1 0-3.8 1.7-3.8 3.8v45.2c0 2 1.7 3.7 3.8 3.7h45.2c2.1 0 3.7-1.7 3.7-3.7v-45.2c0-2.1-1.6-3.8-3.7-3.8z"/></svg>